<?xml version="1.0" standalone="no"?>
<!DOCTYPE svg PUBLIC "-//W3C//DTD SVG 20010904//EN"
 "http://www.w3.org/TR/2001/REC-SVG-20010904/DTD/svg10.dtd">
<svg version="1.0" xmlns="http://www.w3.org/2000/svg"
 width="512.000000pt" height="512.000000pt" viewBox="0 0 512.000000 512.000000"
 preserveAspectRatio="xMidYMid meet">
<metadata>
Created by potrace 1.14, written by Peter Selinger 2001-2017
</metadata>
<g transform="translate(0.000000,512.000000) scale(0.100000,-0.100000)"
fill="#000000" stroke="none">
<path d="M881 4881 c-13 -23 0 -63 53 -169 20 -39 36 -77 36 -84 0 -6 8 -21
19 -32 30 -33 140 -234 151 -277 6 -21 19 -44 28 -51 16 -12 101 -150 105
-171 1 -5 -11 -14 -28 -20 -16 -5 -38 -16 -47 -25 -10 -8 -18 -12 -18 -8 0 10
-52 -27 -119 -83 -65 -54 -122 -139 -150 -222 -29 -86 -24 -230 11 -312 36
-84 87 -140 161 -177 103 -50 234 -45 280 11 24 30 21 45 -13 76 -66 59 -91
130 -64 184 27 54 104 62 188 19 42 -22 116 -87 116 -102 0 -5 10 -22 22 -39
l23 -31 -40 -35 c-72 -64 -146 -137 -185 -183 -22 -25 -51 -58 -65 -75 -14
-16 -103 -128 -196 -248 -154 -197 -283 -382 -333 -477 -10 -20 -33 -42 -55
-53 -47 -23 -122 -87 -247 -212 -80 -80 -108 -116 -137 -175 -42 -88 -48 -115
-52 -235 -3 -99 11 -170 50 -250 54 -109 164 -212 258 -240 64 -19 191 -19
280 0 141 30 298 145 393 289 l38 58 136 -7 c249 -14 623 -5 785 19 54 8 101
14 102 12 4 -4 -45 -142 -115 -321 -62 -161 -141 -409 -181 -572 -6 -24 -16
-62 -22 -85 -24 -94 -47 -230 -42 -245 4 -11 64 -27 143 -39 19 -3 46 -7 60
-10 25 -4 292 -39 380 -49 118 -13 123 -14 350 -31 68 -5 409 -5 460 0 25 3
89 8 144 11 54 4 106 8 115 10 9 1 52 6 96 9 44 4 95 9 113 12 17 2 47 6 65 8
17 3 59 8 92 11 33 4 63 9 66 11 4 2 31 7 60 10 80 10 135 28 131 45 -2 7 3
18 11 24 33 24 61 111 72 225 14 135 36 192 163 412 114 198 188 368 206 476
4 17 9 47 12 65 20 115 -3 322 -53 460 -70 197 -210 372 -391 487 l-73 47 33
12 c137 50 205 106 255 211 34 70 41 186 16 252 -48 125 -172 238 -247 224
-48 -9 -60 -26 -41 -62 32 -63 11 -150 -45 -179 -27 -14 -105 -24 -114 -14 -2
2 -6 58 -9 124 -3 66 -8 129 -11 140 -3 11 -10 40 -16 65 -36 152 -161 306
-300 373 -96 46 -213 75 -303 77 l-28 0 22 23 c44 45 82 145 87 228 6 105 -14
163 -83 237 -107 115 -271 139 -368 54 -25 -22 -21 -49 11 -66 47 -24 64 -51
64 -99 0 -109 -89 -181 -210 -170 -106 9 -377 101 -393 133 -4 8 -15 40 -24
70 -31 103 -134 285 -207 364 l-46 51 -24 -28 c-32 -36 -119 -203 -168 -320
-34 -80 -42 -92 -62 -91 -25 2 -137 14 -178 19 -14 2 -57 4 -97 4 -66 1 -75 3
-103 31 -17 16 -36 46 -43 67 -9 28 -19 39 -42 45 -35 9 -179 152 -190 189
-10 33 -34 59 -50 53 -15 -6 -191 167 -200 197 -4 10 -10 19 -16 19 -5 0 -33
22 -63 49 -93 84 -138 105 -155 72z"/>
</g>
</svg>
